<?xml version="1.0" encoding="utf-8" standalone="no"?>
<!DOCTYPE svg PUBLIC "-//W3C//DTD SVG 1.1//EN"
  "http://www.w3.org/Graphics/SVG/1.1/DTD/svg11.dtd">
<!-- Created with matplotlib (https://matplotlib.org/) -->
<svg height="345.6pt" version="1.1" viewBox="0 0 460.8 345.6" width="460.8pt" xmlns="http://www.w3.org/2000/svg" xmlns:xlink="http://www.w3.org/1999/xlink">
 <defs>
  <style type="text/css">
*{stroke-linecap:butt;stroke-linejoin:round;}
  </style>
 </defs>
 <g id="figure_1">
  <g id="patch_1">
   <path d="M 0 345.6 
L 460.8 345.6 
L 460.8 0 
L 0 0 
z
" style="fill:#ffffff;"/>
  </g>
  <g id="patch_2">
   <path d="M 0 345.6 
L 460.8 345.6 
L 460.8 0 
L 0 0 
z
" style="fill:#ffffff;"/>
  </g>
  <g id="pane3d_1">
   <g id="patch_3">
    <path d="M 61.086161 269.23458 
L 192.969532 184.501291 
L 190.773813 22.589882 
L 51.53708 98.721 
" style="fill:#f2f2f2;opacity:0.5;stroke:#f2f2f2;stroke-linejoin:miter;"/>
   </g>
  </g>
  <g id="pane3d_2">
   <g id="patch_4">
    <path d="M 192.969532 184.501291 
L 406.608193 231.872667 
L 415.546579 65.078886 
L 190.773813 22.589882 
" style="fill:#e6e6e6;opacity:0.5;stroke:#e6e6e6;stroke-linejoin:miter;"/>
   </g>
  </g>
  <g id="pane3d_3">
   <g id="patch_5">
    <path d="M 61.086161 269.23458 
L 285.8629 324.406266 
L 406.608193 231.872667 
L 192.969532 184.501291 
" style="fill:#ececec;opacity:0.5;stroke:#ececec;stroke-linejoin:miter;"/>
   </g>
  </g>
  <g id="axis3d_1">
   <g id="line2d_1">
    <path d="M 61.086161 269.23458 
L 285.8629 324.406266 
" style="fill:none;stroke:#000000;stroke-linecap:square;stroke-width:0.8;"/>
   </g>
   <g id="Line3DCollection_1">
    <path d="M 74.790002 272.598202 
L 206.035403 187.398464 
L 204.492546 25.183147 
" style="fill:none;stroke:#b0b0b0;stroke-width:0.8;"/>
    <path d="M 107.79258 280.698719 
L 237.479626 194.37078 
L 237.522913 31.426907 
" style="fill:none;stroke:#b0b0b0;stroke-width:0.8;"/>
    <path d="M 141.250232 288.910935 
L 269.32581 201.432224 
L 270.997098 37.754564 
" style="fill:none;stroke:#b0b0b0;stroke-width:0.8;"/>
    <path d="M 175.172436 297.237176 
L 301.581711 208.584518 
L 304.924107 44.167817 
" style="fill:none;stroke:#b0b0b0;stroke-width:0.8;"/>
    <path d="M 209.568935 305.679833 
L 334.255287 215.829425 
L 339.31319 50.668418 
" style="fill:none;stroke:#b0b0b0;stroke-width:0.8;"/>
    <path d="M 244.449746 314.241364 
L 367.354705 223.168757 
L 374.173851 57.258161 
" style="fill:none;stroke:#b0b0b0;stroke-width:0.8;"/>
    <path d="M 279.825171 322.924299 
L 400.888343 230.60437 
L 409.515859 63.938893 
" style="fill:none;stroke:#b0b0b0;stroke-width:0.8;"/>
   </g>
   <g id="xtick_1">
    <g id="line2d_2">
     <path d="M 75.920749 271.864162 
L 72.524291 274.069019 
" style="fill:none;stroke:#000000;stroke-linecap:square;stroke-width:0.8;"/>
    </g>
    <g id="text_1">
     <!-- −3 -->
     <defs>
      <path d="M 10.59375 35.5 
L 73.1875 35.5 
L 73.1875 27.203125 
L 10.59375 27.203125 
z
" id="DejaVuSans-8722"/>
      <path d="M 40.578125 39.3125 
Q 47.65625 37.796875 51.625 33 
Q 55.609375 28.21875 55.609375 21.1875 
Q 55.609375 10.40625 48.1875 4.484375 
Q 40.765625 -1.421875 27.09375 -1.421875 
Q 22.515625 -1.421875 17.65625 -0.515625 
Q 12.796875 0.390625 7.625 2.203125 
L 7.625 11.71875 
Q 11.71875 9.328125 16.59375 8.109375 
Q 21.484375 6.890625 26.8125 6.890625 
Q 36.078125 6.890625 40.9375 10.546875 
Q 45.796875 14.203125 45.796875 21.1875 
Q 45.796875 27.640625 41.28125 31.265625 
Q 36.765625 34.90625 28.71875 34.90625 
L 20.21875 34.90625 
L 20.21875 43.015625 
L 29.109375 43.015625 
Q 36.375 43.015625 40.234375 45.921875 
Q 44.09375 48.828125 44.09375 54.296875 
Q 44.09375 59.90625 40.109375 62.90625 
Q 36.140625 65.921875 28.71875 65.921875 
Q 24.65625 65.921875 20.015625 65.03125 
Q 15.375 64.15625 9.8125 62.3125 
L 9.8125 71.09375 
Q 15.4375 72.65625 20.34375 73.4375 
Q 25.25 74.21875 29.59375 74.21875 
Q 40.828125 74.21875 47.359375 69.109375 
Q 53.90625 64.015625 53.90625 55.328125 
Q 53.90625 49.265625 50.4375 45.09375 
Q 46.96875 40.921875 40.578125 39.3125 
z
" id="DejaVuSans-51"/>
     </defs>
     <g transform="translate(60.12207 294.115779)scale(0.1 -0.1)">
      <use xlink:href="#DejaVuSans-8722"/>
      <use x="83.789062" xlink:href="#DejaVuSans-51"/>
     </g>
    </g>
   </g>
   <g id="xtick_2">
    <g id="line2d_3">
     <path d="M 108.910447 279.954596 
L 105.552648 282.18976 
" style="fill:none;stroke:#000000;stroke-linecap:square;stroke-width:0.8;"/>
    </g>
    <g id="text_2">
     <!-- −2 -->
     <defs>
      <path d="M 19.1875 8.296875 
L 53.609375 8.296875 
L 53.609375 0 
L 7.328125 0 
L 7.328125 8.296875 
Q 12.9375 14.109375 22.625 23.890625 
Q 32.328125 33.6875 34.8125 36.53125 
Q 39.546875 41.84375 41.421875 45.53125 
Q 43.3125 49.21875 43.3125 52.78125 
Q 43.3125 58.59375 39.234375 62.25 
Q 35.15625 65.921875 28.609375 65.921875 
Q 23.96875 65.921875 18.8125 64.3125 
Q 13.671875 62.703125 7.8125 59.421875 
L 7.8125 69.390625 
Q 13.765625 71.78125 18.9375 73 
Q 24.125 74.21875 28.421875 74.21875 
Q 39.75 74.21875 46.484375 68.546875 
Q 53.21875 62.890625 53.21875 53.421875 
Q 53.21875 48.921875 51.53125 44.890625 
Q 49.859375 40.875 45.40625 35.40625 
Q 44.1875 33.984375 37.640625 27.21875 
Q 31.109375 20.453125 19.1875 8.296875 
z
" id="DejaVuSans-50"/>
     </defs>
     <g transform="translate(93.121753 302.323312)scale(0.1 -0.1)">
      <use xlink:href="#DejaVuSans-8722"/>
      <use x="83.789062" xlink:href="#DejaVuSans-50"/>
     </g>
    </g>
   </g>
   <g id="xtick_3">
    <g id="line2d_4">
     <path d="M 142.354756 288.156519 
L 139.037009 290.42262 
" style="fill:none;stroke:#000000;stroke-linecap:square;stroke-width:0.8;"/>
    </g>
    <g id="text_3">
     <!-- −1 -->
     <defs>
      <path d="M 12.40625 8.296875 
L 28.515625 8.296875 
L 28.515625 63.921875 
L 10.984375 60.40625 
L 10.984375 69.390625 
L 28.421875 72.90625 
L 38.28125 72.90625 
L 38.28125 8.296875 
L 54.390625 8.296875 
L 54.390625 0 
L 12.40625 0 
z
" id="DejaVuSans-49"/>
     </defs>
     <g transform="translate(126.577125 310.644182)scale(0.1 -0.1)">
      <use xlink:href="#DejaVuSans-8722"/>
      <use x="83.789062" xlink:href="#DejaVuSans-49"/>
     </g>
    </g>
   </g>
   <g id="xtick_4">
    <g id="line2d_5">
     <path d="M 176.263137 296.472252 
L 172.986882 298.769937 
" style="fill:none;stroke:#000000;stroke-linecap:square;stroke-width:0.8;"/>
    </g>
    <g id="text_4">
     <!-- 0 -->
     <defs>
      <path d="M 31.78125 66.40625 
Q 24.171875 66.40625 20.328125 58.90625 
Q 16.5 51.421875 16.5 36.375 
Q 16.5 21.390625 20.328125 13.890625 
Q 24.171875 6.390625 31.78125 6.390625 
Q 39.453125 6.390625 43.28125 13.890625 
Q 47.125 21.390625 47.125 36.375 
Q 47.125 51.421875 43.28125 58.90625 
Q 39.453125 66.40625 31.78125 66.40625 
z
M 31.78125 74.21875 
Q 44.046875 74.21875 50.515625 64.515625 
Q 56.984375 54.828125 56.984375 36.375 
Q 56.984375 17.96875 50.515625 8.265625 
Q 44.046875 -1.421875 31.78125 -1.421875 
Q 19.53125 -1.421875 13.0625 8.265625 
Q 6.59375 17.96875 6.59375 36.375 
Q 6.59375 54.828125 13.0625 64.515625 
Q 19.53125 74.21875 31.78125 74.21875 
z
" id="DejaVuSans-48"/>
     </defs>
     <g transform="translate(164.687534 319.080753)scale(0.1 -0.1)">
      <use xlink:href="#DejaVuSans-48"/>
     </g>
    </g>
   </g>
   <g id="xtick_5">
    <g id="line2d_6">
     <path d="M 210.645317 304.90418 
L 207.412044 307.234113 
" style="fill:none;stroke:#000000;stroke-linecap:square;stroke-width:0.8;"/>
    </g>
    <g id="text_5">
     <!-- 1 -->
     <g transform="translate(199.083063 327.635454)scale(0.1 -0.1)">
      <use xlink:href="#DejaVuSans-49"/>
     </g>
    </g>
   </g>
   <g id="xtick_6">
    <g id="line2d_7">
     <path d="M 245.511297 313.454755 
L 242.322546 315.81762 
" style="fill:none;stroke:#000000;stroke-linecap:square;stroke-width:0.8;"/>
    </g>
    <g id="text_6">
     <!-- 2 -->
     <g transform="translate(233.963601 336.310785)scale(0.1 -0.1)">
      <use xlink:href="#DejaVuSans-50"/>
     </g>
    </g>
   </g>
   <g id="xtick_7">
    <g id="line2d_8">
     <path d="M 280.87136 322.1265 
L 277.728724 324.523001 
" style="fill:none;stroke:#000000;stroke-linecap:square;stroke-width:0.8;"/>
    </g>
    <g id="text_7">
     <!-- 3 -->
     <g transform="translate(269.339481 345.109315)scale(0.1 -0.1)">
      <use xlink:href="#DejaVuSans-51"/>
     </g>
    </g>
   </g>
  </g>
  <g id="axis3d_2">
   <g id="line2d_9">
    <path d="M 406.608193 231.872667 
L 285.8629 324.406266 
" style="fill:none;stroke:#000000;stroke-linecap:square;stroke-width:0.8;"/>
   </g>
   <g id="Line3DCollection_2">
    <path d="M 61.071086 93.508047 
L 70.083907 263.453649 
L 294.126531 318.073402 
" style="fill:none;stroke:#b0b0b0;stroke-width:0.8;"/>
    <path d="M 83.417786 81.289438 
L 91.192483 249.891673 
L 313.498028 303.227985 
" style="fill:none;stroke:#b0b0b0;stroke-width:0.8;"/>
    <path d="M 105.227073 69.364672 
L 111.818889 236.639485 
L 332.406935 288.737074 
" style="fill:none;stroke:#b0b0b0;stroke-width:0.8;"/>
    <path d="M 126.518104 57.723275 
L 131.979458 223.686591 
L 350.869629 274.588121 
" style="fill:none;stroke:#b0b0b0;stroke-width:0.8;"/>
    <path d="M 147.309135 46.355266 
L 151.689796 211.022965 
L 368.901718 260.769163 
" style="fill:none;stroke:#b0b0b0;stroke-width:0.8;"/>
    <path d="M 167.617575 35.251126 
L 170.964817 198.639023 
L 386.518095 247.268788 
" style="fill:none;stroke:#b0b0b0;stroke-width:0.8;"/>
    <path d="M 187.460033 24.401773 
L 189.818787 186.525601 
L 403.73297 234.076105 
" style="fill:none;stroke:#b0b0b0;stroke-width:0.8;"/>
   </g>
   <g id="xtick_8">
    <g id="line2d_10">
     <path d="M 292.251492 317.616283 
L 297.880801 318.988663 
" style="fill:none;stroke:#000000;stroke-linecap:square;stroke-width:0.8;"/>
    </g>
    <g id="text_8">
     <!-- −3 -->
     <g transform="translate(299.421138 337.876136)scale(0.1 -0.1)">
      <use xlink:href="#DejaVuSans-8722"/>
      <use x="83.789062" xlink:href="#DejaVuSans-51"/>
     </g>
    </g>
   </g>
   <g id="xtick_9">
    <g id="line2d_11">
     <path d="M 311.638517 302.781845 
L 317.221154 304.12125 
" style="fill:none;stroke:#000000;stroke-linecap:square;stroke-width:0.8;"/>
    </g>
    <g id="text_9">
     <!-- −2 -->
     <g transform="translate(318.632099 322.889075)scale(0.1 -0.1)">
      <use xlink:href="#DejaVuSans-8722"/>
      <use x="83.789062" xlink:href="#DejaVuSans-50"/>
     </g>
    </g>
   </g>
   <g id="xtick_10">
    <g id="line2d_12">
     <path d="M 330.562751 288.301522 
L 336.099327 289.609128 
" style="fill:none;stroke:#000000;stroke-linecap:square;stroke-width:0.8;"/>
    </g>
    <g id="text_10">
     <!-- −1 -->
     <g transform="translate(337.38448 308.259766)scale(0.1 -0.1)">
      <use xlink:href="#DejaVuSans-8722"/>
      <use x="83.789062" xlink:href="#DejaVuSans-49"/>
     </g>
    </g>
   </g>
   <g id="xtick_11">
    <g id="line2d_13">
     <path d="M 349.04057 274.162785 
L 354.53169 275.43971 
" style="fill:none;stroke:#000000;stroke-linecap:square;stroke-width:0.8;"/>
    </g>
    <g id="text_11">
     <!-- 0 -->
     <g transform="translate(359.884353 293.975549)scale(0.1 -0.1)">
      <use xlink:href="#DejaVuSans-48"/>
     </g>
    </g>
   </g>
   <g id="xtick_12">
    <g id="line2d_14">
     <path d="M 367.087584 260.353687 
L 372.533852 261.600999 
" style="fill:none;stroke:#000000;stroke-linecap:square;stroke-width:0.8;"/>
    </g>
    <g id="text_12">
     <!-- 1 -->
     <g transform="translate(377.767499 280.024357)scale(0.1 -0.1)">
      <use xlink:href="#DejaVuSans-49"/>
     </g>
    </g>
   </g>
   <g id="xtick_13">
    <g id="line2d_15">
     <path d="M 384.718687 246.862834 
L 390.120699 248.081551 
" style="fill:none;stroke:#000000;stroke-linecap:square;stroke-width:0.8;"/>
    </g>
    <g id="text_13">
     <!-- 2 -->
     <g transform="translate(395.238519 266.394678)scale(0.1 -0.1)">
      <use xlink:href="#DejaVuSans-50"/>
     </g>
    </g>
   </g>
   <g id="xtick_14">
    <g id="line2d_16">
     <path d="M 401.948093 233.679349 
L 407.306439 234.870444 
" style="fill:none;stroke:#000000;stroke-linecap:square;stroke-width:0.8;"/>
    </g>
    <g id="text_14">
     <!-- 3 -->
     <g transform="translate(412.311497 253.075523)scale(0.1 -0.1)">
      <use xlink:href="#DejaVuSans-51"/>
     </g>
    </g>
   </g>
  </g>
  <g id="axis3d_3">
   <g id="line2d_17">
    <path d="M 406.608193 231.872667 
L 415.546579 65.078886 
" style="fill:none;stroke:#000000;stroke-linecap:square;stroke-width:0.8;"/>
   </g>
   <g id="Line3DCollection_3">
    <path d="M 406.7782 228.700274 
L 192.92768 181.415172 
L 60.904845 265.996909 
" style="fill:none;stroke:#b0b0b0;stroke-width:0.8;"/>
    <path d="M 407.690677 211.673097 
L 192.703109 164.855429 
L 59.931467 248.615745 
" style="fill:none;stroke:#b0b0b0;stroke-width:0.8;"/>
    <path d="M 408.612993 194.46231 
L 192.476219 148.124606 
L 58.947246 231.04095 
" style="fill:none;stroke:#b0b0b0;stroke-width:0.8;"/>
    <path d="M 409.545309 177.064929 
L 192.246972 131.220038 
L 57.951998 213.269269 
" style="fill:none;stroke:#b0b0b0;stroke-width:0.8;"/>
    <path d="M 410.487788 159.4779 
L 192.015332 114.139005 
L 56.945538 195.297376 
" style="fill:none;stroke:#b0b0b0;stroke-width:0.8;"/>
    <path d="M 411.440597 141.698108 
L 191.781262 96.878729 
L 55.927676 177.121868 
" style="fill:none;stroke:#b0b0b0;stroke-width:0.8;"/>
    <path d="M 412.403908 123.722364 
L 191.544722 79.436373 
L 54.898216 158.739265 
" style="fill:none;stroke:#b0b0b0;stroke-width:0.8;"/>
    <path d="M 413.377893 105.547412 
L 191.305673 61.809042 
L 53.856958 140.146007 
" style="fill:none;stroke:#b0b0b0;stroke-width:0.8;"/>
    <path d="M 414.362733 87.169921 
L 191.064076 43.993777 
L 52.8037 121.338453 
" style="fill:none;stroke:#b0b0b0;stroke-width:0.8;"/>
    <path d="M 415.358608 68.586488 
L 190.81989 25.987556 
L 51.738232 102.312876 
" style="fill:none;stroke:#b0b0b0;stroke-width:0.8;"/>
   </g>
   <g id="xtick_15">
    <g id="line2d_18">
     <path d="M 404.993923 228.305747 
L 410.350466 229.490148 
" style="fill:none;stroke:#000000;stroke-linecap:square;stroke-width:0.8;"/>
    </g>
    <g id="text_15">
     <!-- 0 -->
     <g transform="translate(421.905362 234.324457)scale(0.1 -0.1)">
      <use xlink:href="#DejaVuSans-48"/>
     </g>
    </g>
   </g>
   <g id="xtick_16">
    <g id="line2d_19">
     <path d="M 405.896517 211.282384 
L 411.282749 212.45534 
" style="fill:none;stroke:#000000;stroke-linecap:square;stroke-width:0.8;"/>
    </g>
    <g id="text_16">
     <!-- 2 -->
     <g transform="translate(422.914261 217.316379)scale(0.1 -0.1)">
      <use xlink:href="#DejaVuSans-50"/>
     </g>
    </g>
   </g>
   <g id="xtick_17">
    <g id="line2d_20">
     <path d="M 406.80884 194.075517 
L 412.225093 195.236711 
" style="fill:none;stroke:#000000;stroke-linecap:square;stroke-width:0.8;"/>
    </g>
    <g id="text_17">
     <!-- 4 -->
     <defs>
      <path d="M 37.796875 64.3125 
L 12.890625 25.390625 
L 37.796875 25.390625 
z
M 35.203125 72.90625 
L 47.609375 72.90625 
L 47.609375 25.390625 
L 58.015625 25.390625 
L 58.015625 17.1875 
L 47.609375 17.1875 
L 47.609375 0 
L 37.796875 0 
L 37.796875 17.1875 
L 4.890625 17.1875 
L 4.890625 26.703125 
z
" id="DejaVuSans-52"/>
     </defs>
     <g transform="translate(423.93402 200.125219)scale(0.1 -0.1)">
      <use xlink:href="#DejaVuSans-52"/>
     </g>
    </g>
   </g>
   <g id="xtick_18">
    <g id="line2d_21">
     <path d="M 407.731051 176.682162 
L 413.177661 177.83127 
" style="fill:none;stroke:#000000;stroke-linecap:square;stroke-width:0.8;"/>
    </g>
    <g id="text_18">
     <!-- 6 -->
     <defs>
      <path d="M 33.015625 40.375 
Q 26.375 40.375 22.484375 35.828125 
Q 18.609375 31.296875 18.609375 23.390625 
Q 18.609375 15.53125 22.484375 10.953125 
Q 26.375 6.390625 33.015625 6.390625 
Q 39.65625 6.390625 43.53125 10.953125 
Q 47.40625 15.53125 47.40625 23.390625 
Q 47.40625 31.296875 43.53125 35.828125 
Q 39.65625 40.375 33.015625 40.375 
z
M 52.59375 71.296875 
L 52.59375 62.3125 
Q 48.875 64.0625 45.09375 64.984375 
Q 41.3125 65.921875 37.59375 65.921875 
Q 27.828125 65.921875 22.671875 59.328125 
Q 17.53125 52.734375 16.796875 39.40625 
Q 19.671875 43.65625 24.015625 45.921875 
Q 28.375 48.1875 33.59375 48.1875 
Q 44.578125 48.1875 50.953125 41.515625 
Q 57.328125 34.859375 57.328125 23.390625 
Q 57.328125 12.15625 50.6875 5.359375 
Q 44.046875 -1.421875 33.015625 -1.421875 
Q 20.359375 -1.421875 13.671875 8.265625 
Q 6.984375 17.96875 6.984375 36.375 
Q 6.984375 53.65625 15.1875 63.9375 
Q 23.390625 74.21875 37.203125 74.21875 
Q 40.921875 74.21875 44.703125 73.484375 
Q 48.484375 72.75 52.59375 71.296875 
z
" id="DejaVuSans-54"/>
     </defs>
     <g transform="translate(424.964816 182.748005)scale(0.1 -0.1)">
      <use xlink:href="#DejaVuSans-54"/>
     </g>
    </g>
   </g>
   <g id="xtick_19">
    <g id="line2d_22">
     <path d="M 408.663312 159.099272 
L 414.140619 160.235961 
" style="fill:none;stroke:#000000;stroke-linecap:square;stroke-width:0.8;"/>
    </g>
    <g id="text_19">
     <!-- 8 -->
     <defs>
      <path d="M 31.78125 34.625 
Q 24.75 34.625 20.71875 30.859375 
Q 16.703125 27.09375 16.703125 20.515625 
Q 16.703125 13.921875 20.71875 10.15625 
Q 24.75 6.390625 31.78125 6.390625 
Q 38.8125 6.390625 42.859375 10.171875 
Q 46.921875 13.96875 46.921875 20.515625 
Q 46.921875 27.09375 42.890625 30.859375 
Q 38.875 34.625 31.78125 34.625 
z
M 21.921875 38.8125 
Q 15.578125 40.375 12.03125 44.71875 
Q 8.5 49.078125 8.5 55.328125 
Q 8.5 64.0625 14.71875 69.140625 
Q 20.953125 74.21875 31.78125 74.21875 
Q 42.671875 74.21875 48.875 69.140625 
Q 55.078125 64.0625 55.078125 55.328125 
Q 55.078125 49.078125 51.53125 44.71875 
Q 48 40.375 41.703125 38.8125 
Q 48.828125 37.15625 52.796875 32.3125 
Q 56.78125 27.484375 56.78125 20.515625 
Q 56.78125 9.90625 50.3125 4.234375 
Q 43.84375 -1.421875 31.78125 -1.421875 
Q 19.734375 -1.421875 13.25 4.234375 
Q 6.78125 9.90625 6.78125 20.515625 
Q 6.78125 27.484375 10.78125 32.3125 
Q 14.796875 37.15625 21.921875 38.8125 
z
M 18.3125 54.390625 
Q 18.3125 48.734375 21.84375 45.5625 
Q 25.390625 42.390625 31.78125 42.390625 
Q 38.140625 42.390625 41.71875 45.5625 
Q 45.3125 48.734375 45.3125 54.390625 
Q 45.3125 60.0625 41.71875 63.234375 
Q 38.140625 66.40625 31.78125 66.40625 
Q 25.390625 66.40625 21.84375 63.234375 
Q 18.3125 60.0625 18.3125 54.390625 
z
" id="DejaVuSans-56"/>
     </defs>
     <g transform="translate(426.006829 165.1817)scale(0.1 -0.1)">
      <use xlink:href="#DejaVuSans-56"/>
     </g>
    </g>
   </g>
   <g id="xtick_20">
    <g id="line2d_23">
     <path d="M 409.605787 141.323732 
L 415.11414 142.447659 
" style="fill:none;stroke:#000000;stroke-linecap:square;stroke-width:0.8;"/>
    </g>
    <g id="text_20">
     <!-- 10 -->
     <g transform="translate(423.878992 147.4232)scale(0.1 -0.1)">
      <use xlink:href="#DejaVuSans-49"/>
      <use x="63.623047" xlink:href="#DejaVuSans-48"/>
     </g>
    </g>
   </g>
   <g id="xtick_21">
    <g id="line2d_24">
     <path d="M 410.558645 123.352358 
L 416.098398 124.463171 
" style="fill:none;stroke:#000000;stroke-linecap:square;stroke-width:0.8;"/>
    </g>
    <g id="text_21">
     <!-- 12 -->
     <g transform="translate(424.943994 129.469334)scale(0.1 -0.1)">
      <use xlink:href="#DejaVuSans-49"/>
      <use x="63.623047" xlink:href="#DejaVuSans-50"/>
     </g>
    </g>
   </g>
   <g id="xtick_22">
    <g id="line2d_25">
     <path d="M 411.522059 105.181895 
L 417.093571 106.279235 
" style="fill:none;stroke:#000000;stroke-linecap:square;stroke-width:0.8;"/>
    </g>
    <g id="text_22">
     <!-- 14 -->
     <g transform="translate(426.020778 111.316861)scale(0.1 -0.1)">
      <use xlink:href="#DejaVuSans-49"/>
      <use x="63.623047" xlink:href="#DejaVuSans-52"/>
     </g>
    </g>
   </g>
   <g id="xtick_23">
    <g id="line2d_26">
     <path d="M 412.496206 86.809017 
L 418.099842 87.892514 
" style="fill:none;stroke:#000000;stroke-linecap:square;stroke-width:0.8;"/>
    </g>
    <g id="text_23">
     <!-- 16 -->
     <g transform="translate(427.109539 92.962466)scale(0.1 -0.1)">
      <use xlink:href="#DejaVuSans-49"/>
      <use x="63.623047" xlink:href="#DejaVuSans-54"/>
     </g>
    </g>
   </g>
   <g id="xtick_24">
    <g id="line2d_27">
     <path d="M 413.481265 68.230323 
L 419.117398 69.299596 
" style="fill:none;stroke:#000000;stroke-linecap:square;stroke-width:0.8;"/>
    </g>
    <g id="text_24">
     <!-- 18 -->
     <g transform="translate(428.210479 74.402761)scale(0.1 -0.1)">
      <use xlink:href="#DejaVuSans-49"/>
      <use x="63.623047" xlink:href="#DejaVuSans-56"/>
     </g>
    </g>
   </g>
  </g>
  <g id="axes_1">
   <g id="Line3DCollection_4">
    <path clip-path="url(#pf491eab659)" d="M 75.622494 100.097571 
L 84.858859 115.594254 
L 94.000246 129.839841 
L 103.057077 142.857201 
L 112.039518 154.66639 
L 120.957517 165.28475 
L 129.820836 174.726985 
L 138.639094 183.005227 
L 147.421797 190.12909 
L 156.178373 196.105701 
L 164.918207 200.939728 
L 173.650674 204.63339 
L 182.385173 207.186453 
L 191.131159 208.596214 
L 199.898181 208.857473 
L 208.695915 207.962488 
L 217.534202 205.900918 
L 226.423084 202.65975 
L 235.372848 198.22321 
L 244.394063 192.572657 
L 253.497629 185.686459 
L 262.69482 177.53985 
L 271.997339 168.104763 
L 281.417371 157.349645 
" style="fill:none;stroke:#1f77b4;stroke-width:1.5;"/>
    <path clip-path="url(#pf491eab659)" d="M 81.867901 110.63575 
L 91.023313 125.99647 
L 100.08698 140.119358 
L 109.069148 153.026909 
L 117.979817 164.738857 
L 126.828773 175.272265 
L 135.625631 184.641611 
L 144.379863 192.858842 
L 153.100839 199.93343 
L 161.797856 205.872405 
L 170.480169 210.68038 
L 179.157032 214.359558 
L 187.837723 216.909735 
L 196.53158 218.32828 
L 205.248038 218.610107 
L 213.996659 217.747634 
L 222.787171 215.730727 
L 231.629504 212.546625 
L 240.533831 208.179861 
L 249.510609 202.61215 
L 258.570618 195.822274 
L 267.725016 187.785943 
L 276.985382 178.475629 
L 286.363772 167.860387 
" style="fill:none;stroke:#1f77b4;stroke-width:1.5;"/>
    <path clip-path="url(#pf491eab659)" d="M 87.971163 119.853371 
L 97.050335 135.088564 
L 106.040848 149.098057 
L 114.952785 161.904 
L 123.795989 173.525828 
L 132.580098 183.980352 
L 141.314587 193.281836 
L 150.008794 201.442058 
L 158.67196 208.470359 
L 167.313259 214.373677 
L 175.94183 219.156573 
L 184.56681 222.821235 
L 193.197367 225.367484 
L 201.842732 226.792752 
L 210.51223 227.092058 
L 219.215322 226.257963 
L 227.961629 224.280519 
L 236.76098 221.147198 
L 245.623444 216.842807 
L 254.559369 211.349389 
L 263.579434 204.646102 
L 272.694684 196.709088 
L 281.916587 187.511309 
L 291.257082 177.022375 
" style="fill:none;stroke:#1f77b4;stroke-width:1.5;"/>
    <path clip-path="url(#pf491eab659)" d="M 93.94164 127.786936 
L 102.949086 142.906612 
L 111.870825 156.811636 
L 120.716785 169.523841 
L 129.496662 181.062389 
L 138.21996 191.443858 
L 146.896019 200.682316 
L 155.534056 208.789385 
L 164.143191 215.774283 
L 172.732483 221.643863 
L 181.310964 226.402636 
L 189.887663 230.052777 
L 198.471645 232.594126 
L 207.072042 234.024172 
L 215.698081 234.338026 
L 224.359124 233.52838 
L 233.064701 231.585453 
L 241.824542 228.496928 
L 250.648621 224.247861 
L 259.547193 218.82059 
L 268.530837 212.194616 
L 277.610499 204.346471 
L 286.797545 195.249566 
L 296.103808 184.874011 
" style="fill:none;stroke:#1f77b4;stroke-width:1.5;"/>
    <path clip-path="url(#pf491eab659)" d="M 99.788166 134.469285 
L 108.728219 149.483065 
L 117.58539 163.292202 
L 126.369463 175.918242 
L 135.089999 187.380094 
L 143.756373 197.694122 
L 152.377803 206.874216 
L 160.963391 214.931851 
L 169.522146 221.876134 
L 178.063023 227.71384 
L 186.59495 232.449431 
L 195.126859 236.085067 
L 203.667721 238.620606 
L 212.226573 240.053585 
L 220.812556 240.379198 
L 229.434941 239.590254 
L 238.103169 237.677125 
L 246.826887 234.627678 
L 255.615979 230.427199 
L 264.480614 225.058289 
L 273.431282 218.500761 
L 282.478839 210.731499 
L 291.634559 201.724318 
L 300.910179 191.449784 
" style="fill:none;stroke:#1f77b4;stroke-width:1.5;"/>
    <path clip-path="url(#pf491eab659)" d="M 105.519099 139.929823 
L 114.395926 154.846977 
L 123.192578 168.568501 
L 131.918704 181.115677 
L 140.58374 192.507185 
L 149.196941 202.759192 
L 157.767415 211.885424 
L 166.304153 219.897223 
L 174.816065 226.803593 
L 183.312005 232.611234 
L 191.800809 237.324565 
L 200.29132 240.94573 
L 208.792419 243.4746 
L 217.313061 244.908757 
L 225.862301 245.243466 
L 234.449333 244.47164 
L 243.083516 242.583785 
L 251.774418 239.56794 
L 260.531846 235.40959 
L 269.365888 230.091578 
L 278.286954 223.593992 
L 287.305822 215.894037 
L 296.433679 206.96589 
L 305.682179 196.780528 
" style="fill:none;stroke:#1f77b4;stroke-width:1.5;"/>
    <path clip-path="url(#pf491eab659)" d="M 111.142363 144.194724 
L 119.959976 159.024207 
L 128.700011 172.666114 
L 137.371992 185.141483 
L 145.98524 196.468788 
L 154.548897 206.664017 
L 163.071968 215.740745 
L 171.563345 223.710193 
L 180.031842 230.58127 
L 188.486225 236.360608 
L 196.935242 241.052583 
L 205.387653 244.659325 
L 213.85226 247.180714 
L 222.337941 248.614369 
L 230.853675 248.955619 
L 239.408582 248.197469 
L 248.01195 246.330544 
L 256.673275 243.343033 
L 265.402293 239.220602 
L 274.209021 233.946307 
L 283.103798 227.500485 
L 292.097329 219.860626 
L 301.200728 211.001229 
L 310.425572 200.893642 
" style="fill:none;stroke:#1f77b4;stroke-width:1.5;"/>
    <path clip-path="url(#pf491eab659)" d="M 116.665487 147.287112 
L 125.427757 162.037598 
L 134.114944 175.60763 
L 142.736456 188.018031 
L 151.301506 199.287085 
L 159.819135 209.430619 
L 168.29825 218.462072 
L 176.747651 226.392552 
L 185.176066 233.230883 
L 193.592178 238.983633 
L 202.004655 243.65514 
L 210.422183 247.247516 
L 218.853491 249.760649 
L 227.307384 251.192189 
L 235.792776 251.537521 
L 244.318719 250.789728 
L 252.894437 248.939543 
L 261.529361 245.975285 
L 270.233163 241.88278 
L 279.015799 236.645274 
L 287.887545 230.243322 
L 296.859039 222.654668 
L 305.941332 213.8541 
L 315.145934 203.813291 
" style="fill:none;stroke:#1f77b4;stroke-width:1.5;"/>
    <path clip-path="url(#pf491eab659)" d="M 122.095641 149.227223 
L 130.806311 163.90713 
L 139.444295 177.412806 
L 148.0189 189.764881 
L 156.539234 200.981467 
L 165.014245 211.078246 
L 173.452751 220.068533 
L 181.863469 227.963337 
L 190.255046 234.771401 
L 198.63609 240.499236 
L 207.015197 245.151143 
L 215.400983 248.729216 
L 223.802111 251.23335 
L 232.227324 252.66122 
L 240.685474 253.008256 
L 249.185553 252.267612 
L 257.736727 250.430111 
L 266.34837 247.484187 
L 275.0301 243.415806 
L 283.791815 238.208378 
L 292.643737 231.842654 
L 301.596448 224.296598 
L 310.660943 215.545252 
L 319.848675 205.560575 
" style="fill:none;stroke:#1f77b4;stroke-width:1.5;"/>
    <path clip-path="url(#pf491eab659)" d="M 127.439671 150.032539 
L 136.102363 164.650061 
L 144.694681 178.098702 
L 153.225831 190.398916 
L 161.70483 201.568666 
L 170.14054 211.6235 
L 178.541696 220.576627 
L 186.916939 228.438961 
L 195.274843 235.219176 
L 203.623946 240.92373 
L 211.97278 245.556886 
L 220.329897 249.120726 
L 228.703903 251.615143 
L 237.103482 253.037832 
L 245.537432 253.384265 
L 254.014692 252.647652 
L 262.544378 250.818896 
L 271.135813 247.886527 
L 279.798567 243.836632 
L 288.54249 238.652766 
L 297.377755 232.315844 
L 306.314898 224.804023 
L 315.364866 216.092568 
L 324.539063 206.153686 
" style="fill:none;stroke:#1f77b4;stroke-width:1.5;"/>
    <path clip-path="url(#pf491eab659)" d="M 132.704128 149.717912 
L 141.322358 164.281045 
L 149.872441 177.679794 
L 158.363493 189.934459 
L 166.804448 201.062869 
L 175.204087 211.080458 
L 183.571071 220.000333 
L 191.91397 227.833331 
L 200.241292 234.588059 
L 208.561514 240.270926 
L 216.883108 244.886164 
L 225.21457 248.435838 
L 233.564453 250.91984 
L 241.941392 252.33588 
L 250.354134 252.679461 
L 258.811574 251.943841 
L 267.322783 250.119987 
L 275.897041 247.196513 
L 284.543876 243.159609 
L 293.273098 237.992949 
L 302.094839 231.67759 
L 311.019597 224.191855 
L 320.058278 215.511196 
L 329.222245 205.608034 
" style="fill:none;stroke:#1f77b4;stroke-width:1.5;"/>
    <path clip-path="url(#pf491eab659)" d="M 137.895299 148.295668 
L 146.472482 162.812235 
L 154.983668 176.168082 
L 163.437893 188.383374 
L 171.84401 199.475823 
L 180.21073 209.460762 
L 188.546646 218.351212 
L 196.860263 226.157939 
L 205.160031 232.88949 
L 213.45437 238.552233 
L 221.7517 243.150368 
L 230.060468 246.685942 
L 238.389178 249.158844 
L 246.746421 250.566796 
L 255.140905 250.905323 
L 263.581483 250.167722 
L 272.077188 248.345012 
L 280.637264 245.425874 
L 289.271205 241.396582 
L 297.988787 236.240911 
L 306.80011 229.940035 
L 315.715638 222.472415 
L 324.746247 213.813657 
L 333.903271 203.936365 
" style="fill:none;stroke:#1f77b4;stroke-width:1.5;"/>
    <path clip-path="url(#pf491eab659)" d="M 143.019228 145.775698 
L 151.558689 160.253373 
L 160.034234 173.573172 
L 168.45482 185.755149 
L 176.829232 196.816914 
L 185.166115 206.773712 
L 193.474001 215.638491 
L 201.761337 223.421951 
L 210.036521 230.132593 
L 218.307922 235.77674 
L 226.583913 240.358567 
L 234.872898 243.880103 
L 243.183342 246.341233 
L 251.523796 247.739681 
L 259.902933 248.07099 
L 268.329571 247.328484 
L 276.812714 245.503225 
L 285.361576 242.583945 
L 293.985621 238.556985 
L 302.6946 233.406198 
L 311.498587 227.112855 
L 320.408023 219.655525 
L 329.43376 211.009943 
L 338.58711 201.148855 
" style="fill:none;stroke:#1f77b4;stroke-width:1.5;"/>
    <path clip-path="url(#pf491eab659)" d="M 148.081746 142.16553 
L 156.586729 156.61186 
L 165.029809 169.902356 
L 173.419875 182.056975 
L 181.765648 193.093244 
L 190.075713 203.026334 
L 198.358547 211.86913 
L 206.622548 219.632278 
L 214.876066 226.324234 
L 223.127425 231.951286 
L 231.38496 236.517584 
L 239.657035 240.025137 
L 247.952081 242.473823 
L 256.278617 243.861367 
L 264.645286 244.183321 
L 273.060881 243.433028 
L 281.534378 241.601578 
L 290.074968 238.677743 
L 298.692096 234.64791 
L 307.395491 229.495993 
L 316.195211 223.203336 
L 325.10168 215.748591 
L 334.125734 207.107591 
L 343.278669 197.253194 
" style="fill:none;stroke:#1f77b4;stroke-width:1.5;"/>
    <path clip-path="url(#pf491eab659)" d="M 153.088493 137.470393 
L 161.562168 151.89282 
L 169.975891 165.160661 
L 178.338489 177.293797 
L 186.658627 188.309685 
L 194.944837 198.223437 
L 203.205547 207.047884 
L 211.449111 214.793629 
L 219.683836 221.469087 
L 227.91801 227.080518 
L 236.159931 231.632045 
L 244.417935 235.125662 
L 252.70042 237.561234 
L 261.015882 238.936483 
L 269.372939 239.246963 
L 277.780362 238.486027 
L 286.247109 236.644781 
L 294.782355 233.712022 
L 303.39553 229.674169 
L 312.096349 224.515178 
L 320.894861 218.216438 
L 329.80148 210.756663 
L 338.827034 202.111754 
L 347.982816 192.254648 
" style="fill:none;stroke:#1f77b4;stroke-width:1.5;"/>
    <path clip-path="url(#pf491eab659)" d="M 158.044936 131.693267 
L 166.490407 146.099148 
L 174.877819 159.350908 
L 183.215946 171.468367 
L 191.513401 182.468929 
L 199.778669 192.367659 
L 208.020136 201.177346 
L 216.246118 208.908557 
L 224.464885 215.569675 
L 232.684695 221.166932 
L 240.913815 225.70443 
L 249.160556 229.184145 
L 257.433293 231.605929 
L 265.740501 232.967493 
L 274.090781 233.264389 
L 282.492888 232.48997 
L 290.955769 230.635347 
L 299.488587 227.689327 
L 308.100764 223.638345 
L 316.802011 218.466378 
L 325.60237 212.154843 
L 334.512256 204.682485 
L 343.542499 196.025248 
L 352.704391 186.156116 
" style="fill:none;stroke:#1f77b4;stroke-width:1.5;"/>
    <path clip-path="url(#pf491eab659)" d="M 162.956394 124.834913 
L 171.376705 139.231545 
L 179.740799 152.473739 
L 188.057398 164.581275 
L 196.335074 175.571519 
L 204.582271 185.459503 
L 212.807339 194.257983 
L 221.018557 201.977497 
L 229.22417 208.626404 
L 237.432407 214.210914 
L 245.651513 218.735106 
L 253.889776 222.200939 
L 262.155558 224.608249 
L 270.457316 225.954735 
L 278.803641 226.235937 
L 287.203278 225.4452 
L 295.665167 223.573627 
L 304.198468 220.610024 
L 312.812601 216.540823 
L 321.517278 211.350004 
L 330.322545 205.01899 
L 339.238823 197.526534 
L 348.276949 188.848592 
L 357.448228 178.958166 
" style="fill:none;stroke:#1f77b4;stroke-width:1.5;"/>
    <path clip-path="url(#pf491eab659)" d="M 167.828055 116.893907 
L 176.226199 131.288542 
L 184.569917 144.527647 
L 192.86789 156.630977 
L 201.128652 167.615878 
L 209.360611 177.497358 
L 217.572086 186.288155 
L 225.771332 193.998785 
L 233.966566 200.637587 
L 242.165998 206.210754 
L 250.377855 210.722345 
L 258.610412 214.174301 
L 266.872016 216.56644 
L 275.171118 217.896443 
L 283.516301 218.159831 
L 291.916309 217.349933 
L 300.380079 215.457835 
L 308.916775 212.472323 
L 317.535821 208.379816 
L 326.246938 203.164273 
L 335.060183 196.807103 
L 343.985988 189.287044 
L 353.035209 180.580034 
L 362.219169 170.659062 
" style="fill:none;stroke:#1f77b4;stroke-width:1.5;"/>
    <path clip-path="url(#pf491eab659)" d="M 172.664995 107.866649 
L 181.043918 122.266515 
L 189.370162 135.508983 
L 197.652372 147.613805 
L 205.899048 158.598315 
L 214.118572 168.477516 
L 222.319237 177.264132 
L 230.509275 184.96867 
L 238.696886 191.599456 
L 246.890264 197.162665 
L 255.097624 201.662342 
L 263.327232 205.100407 
L 271.587429 207.476659 
L 279.886662 208.788755 
L 288.233515 209.032193 
L 296.636734 208.200275 
L 305.105262 206.284057 
L 313.648271 203.272296 
L 322.275198 199.151376 
L 330.995777 193.905223 
L 339.820084 187.515204 
L 348.758573 179.960019 
L 357.822123 171.215564 
L 367.022084 161.254781 
" style="fill:none;stroke:#1f77b4;stroke-width:1.5;"/>
    <path clip-path="url(#pf491eab659)" d="M 177.472196 97.747364 
L 185.834805 112.159686 
L 194.146441 125.411966 
L 202.415718 137.523967 
L 210.651111 148.513032 
L 218.860977 158.394166 
L 227.05359 167.180094 
L 235.237168 174.88132 
L 243.419895 181.506161 
L 251.609958 187.060781 
L 259.815564 191.54921 
L 268.044974 194.973351 
L 276.306531 197.332976 
L 284.608684 198.625719 
L 292.960021 198.847044 
L 301.369298 197.990217 
L 309.84547 196.046256 
L 318.397724 193.003872 
L 327.035515 188.8494 
L 335.768598 183.566709 
L 344.607075 177.137111 
L 353.561428 169.539239 
L 362.642568 160.748916 
L 371.861884 150.73901 
" style="fill:none;stroke:#1f77b4;stroke-width:1.5;"/>
    <path clip-path="url(#pf491eab659)" d="M 182.254562 86.528099 
L 190.603733 100.960115 
L 198.903596 114.228667 
L 207.162746 126.353544 
L 215.389632 137.352112 
L 223.592599 147.239392 
L 231.779904 156.028122 
L 239.959755 163.728806 
L 248.140329 170.349763 
L 256.329808 175.897148 
L 264.536398 180.374979 
L 272.768364 183.785137 
L 281.034051 186.12737 
L 289.341917 187.39928 
L 297.700562 187.596294 
L 306.118757 186.711631 
L 314.605474 184.736259 
L 323.169923 181.65883 
L 331.821581 177.465613 
L 340.570236 172.140404 
L 349.426018 165.664433 
L 358.399449 158.016242 
L 367.501478 149.171558 
L 376.74354 139.103141 
" style="fill:none;stroke:#1f77b4;stroke-width:1.5;"/>
    <path clip-path="url(#pf491eab659)" d="M 187.01694 74.198698 
L 195.355518 88.657683 
L 203.646422 101.948994 
L 211.898227 114.092466 
L 220.11937 125.105502 
L 228.318181 135.003153 
L 236.502911 143.798176 
L 244.681761 151.50109 
L 252.862908 158.120215 
L 261.054534 163.661706 
L 269.26485 168.129566 
L 277.502126 171.525659 
L 285.774721 173.849704 
L 294.091106 175.099265 
L 302.459898 175.269724 
L 310.889888 174.354248 
L 319.390074 172.34374 
L 327.969691 169.22678 
L 336.63825 164.989554 
L 345.405574 159.615766 
L 354.281834 153.086543 
L 363.277593 145.380312 
L 372.403853 136.472673 
L 381.672099 126.336247 
" style="fill:none;stroke:#1f77b4;stroke-width:1.5;"/>
    <path clip-path="url(#pf491eab659)" d="M 191.764129 60.746776 
L 200.09494 75.240059 
L 208.37968 88.560662 
L 216.62691 100.728485 
L 224.845058 111.760983 
L 233.042449 121.673249 
L 241.227331 130.478071 
L 249.407906 138.185988 
L 257.592353 144.805332 
L 265.78886 150.342257 
L 274.00565 154.800756 
L 282.251006 158.182673 
L 290.533301 160.487696 
L 298.861027 161.713347 
L 307.242824 161.854956 
L 315.687511 160.905626 
L 324.204114 158.856186 
L 332.801905 155.695129 
L 341.490433 151.408541 
L 350.279562 145.980016 
L 359.179512 139.390552 
L 368.200899 131.618439 
L 377.35478 122.639121 
L 386.652705 112.425047 
" style="fill:none;stroke:#1f77b4;stroke-width:1.5;"/>
    <path clip-path="url(#pf491eab659)" d="M 196.500903 46.157675 
L 204.826758 60.692658 
L 213.108115 74.04915 
L 221.35353 86.247132 
L 229.571428 97.304128 
L 237.770132 107.235284 
L 245.957894 116.053431 
L 254.142921 123.769136 
L 262.333401 130.390749 
L 270.537535 135.924427 
L 278.76356 140.374154 
L 287.019778 143.741752 
L 295.314585 146.026878 
L 303.656498 147.227005 
L 312.054186 147.337406 
L 320.516499 146.351109 
L 329.052504 144.258856 
L 337.671511 141.049039 
L 346.383115 136.707629 
L 355.197232 131.218086 
L 364.124134 124.561262 
L 373.1745 116.715279 
L 382.359451 107.655397 
L 391.69061 97.353862 
" style="fill:none;stroke:#1f77b4;stroke-width:1.5;"/>
    <path clip-path="url(#pf491eab659)" d="M 75.622494 100.097571 
L 81.867901 110.63575 
L 87.971163 119.853371 
L 93.94164 127.786936 
L 99.788166 134.469285 
L 105.519099 139.929823 
L 111.142363 144.194724 
L 116.665487 147.287112 
L 122.095641 149.227223 
L 127.439671 150.032539 
L 132.704128 149.717912 
L 137.895299 148.295668 
L 143.019228 145.775698 
L 148.081746 142.16553 
L 153.088493 137.470393 
L 158.044936 131.693267 
L 162.956394 124.834913 
L 167.828055 116.893907 
L 172.664995 107.866649 
L 177.472196 97.747364 
L 182.254562 86.528099 
L 187.01694 74.198698 
L 191.764129 60.746776 
L 196.500903 46.157675 
" style="fill:none;stroke:#1f77b4;stroke-width:1.5;"/>
    <path clip-path="url(#pf491eab659)" d="M 84.858859 115.594254 
L 91.023313 125.99647 
L 97.050335 135.088564 
L 102.949086 142.906612 
L 108.728219 149.483065 
L 114.395926 154.846977 
L 119.959976 159.024207 
L 125.427757 162.037598 
L 130.806311 163.90713 
L 136.102363 164.650061 
L 141.322358 164.281045 
L 146.472482 162.812235 
L 151.558689 160.253373 
L 156.586729 156.61186 
L 161.562168 151.89282 
L 166.490407 146.099148 
L 171.376705 139.231545 
L 176.226199 131.288542 
L 181.043918 122.266515 
L 185.834805 112.159686 
L 190.603733 100.960115 
L 195.355518 88.657683 
L 200.09494 75.240059 
L 204.826758 60.692658 
" style="fill:none;stroke:#1f77b4;stroke-width:1.5;"/>
    <path clip-path="url(#pf491eab659)" d="M 94.000246 129.839841 
L 100.08698 140.119358 
L 106.040848 149.098057 
L 111.870825 156.811636 
L 117.58539 163.292202 
L 123.192578 168.568501 
L 128.700011 172.666114 
L 134.114944 175.60763 
L 139.444295 177.412806 
L 144.694681 178.098702 
L 149.872441 177.679794 
L 154.983668 176.168082 
L 160.034234 173.573172 
L 165.029809 169.902356 
L 169.975891 165.160661 
L 174.877819 159.350908 
L 179.740799 152.473739 
L 184.569917 144.527647 
L 189.370162 135.508983 
L 194.146441 125.411966 
L 198.903596 114.228667 
L 203.646422 101.948994 
L 208.37968 88.560662 
L 213.108115 74.04915 
" style="fill:none;stroke:#1f77b4;stroke-width:1.5;"/>
    <path clip-path="url(#pf491eab659)" d="M 103.057077 142.857201 
L 109.069148 153.026909 
L 114.952785 161.904 
L 120.716785 169.523841 
L 126.369463 175.918242 
L 131.918704 181.115677 
L 137.371992 185.141483 
L 142.736456 188.018031 
L 148.0189 189.764881 
L 153.225831 190.398916 
L 158.363493 189.934459 
L 163.437893 188.383374 
L 168.45482 185.755149 
L 173.419875 182.056975 
L 178.338489 177.293797 
L 183.215946 171.468367 
L 188.057398 164.581275 
L 192.86789 156.630977 
L 197.652372 147.613805 
L 202.415718 137.523967 
L 207.162746 126.353544 
L 211.898227 114.092466 
L 216.62691 100.728485 
L 221.35353 86.247132 
" style="fill:none;stroke:#1f77b4;stroke-width:1.5;"/>
    <path clip-path="url(#pf491eab659)" d="M 112.039518 154.66639 
L 117.979817 164.738857 
L 123.795989 173.525828 
L 129.496662 181.062389 
L 135.089999 187.380094 
L 140.58374 192.507185 
L 145.98524 196.468788 
L 151.301506 199.287085 
L 156.539234 200.981467 
L 161.70483 201.568666 
L 166.804448 201.062869 
L 171.84401 199.475823 
L 176.829232 196.816914 
L 181.765648 193.093244 
L 186.658627 188.309685 
L 191.513401 182.468929 
L 196.335074 175.571519 
L 201.128652 167.615878 
L 205.899048 158.598315 
L 210.651111 148.513032 
L 215.389632 137.352112 
L 220.11937 125.105502 
L 224.845058 111.760983 
L 229.571428 97.304128 
" style="fill:none;stroke:#1f77b4;stroke-width:1.5;"/>
    <path clip-path="url(#pf491eab659)" d="M 120.957517 165.28475 
L 126.828773 175.272265 
L 132.580098 183.980352 
L 138.21996 191.443858 
L 143.756373 197.694122 
L 149.196941 202.759192 
L 154.548897 206.664017 
L 159.819135 209.430619 
L 165.014245 211.078246 
L 170.14054 211.6235 
L 175.204087 211.080458 
L 180.21073 209.460762 
L 185.166115 206.773712 
L 190.075713 203.026334 
L 194.944837 198.223437 
L 199.778669 192.367659 
L 204.582271 185.459503 
L 209.360611 177.497358 
L 214.118572 168.477516 
L 218.860977 158.394166 
L 223.592599 147.239392 
L 228.318181 135.003153 
L 233.042449 121.673249 
L 237.770132 107.235284 
" style="fill:none;stroke:#1f77b4;stroke-width:1.5;"/>
    <path clip-path="url(#pf491eab659)" d="M 129.820836 174.726985 
L 135.625631 184.641611 
L 141.314587 193.281836 
L 146.896019 200.682316 
L 152.377803 206.874216 
L 157.767415 211.885424 
L 163.071968 215.740745 
L 168.29825 218.462072 
L 173.452751 220.068533 
L 178.541696 220.576627 
L 183.571071 220.000333 
L 188.546646 218.351212 
L 193.474001 215.638491 
L 198.358547 211.86913 
L 203.205547 207.047884 
L 208.020136 201.177346 
L 212.807339 194.257983 
L 217.572086 186.288155 
L 222.319237 177.264132 
L 227.05359 167.180094 
L 231.779904 156.028122 
L 236.502911 143.798176 
L 241.227331 130.478071 
L 245.957894 116.053431 
" style="fill:none;stroke:#1f77b4;stroke-width:1.5;"/>
    <path clip-path="url(#pf491eab659)" d="M 138.639094 183.005227 
L 144.379863 192.858842 
L 150.008794 201.442058 
L 155.534056 208.789385 
L 160.963391 214.931851 
L 166.304153 219.897223 
L 171.563345 223.710193 
L 176.747651 226.392552 
L 181.863469 227.963337 
L 186.916939 228.438961 
L 191.91397 227.833331 
L 196.860263 226.157939 
L 201.761337 223.421951 
L 206.622548 219.632278 
L 211.449111 214.793629 
L 216.246118 208.908557 
L 221.018557 201.977497 
L 225.771332 193.998785 
L 230.509275 184.96867 
L 235.237168 174.88132 
L 239.959755 163.728806 
L 244.681761 151.50109 
L 249.407906 138.185988 
L 254.142921 123.769136 
" style="fill:none;stroke:#1f77b4;stroke-width:1.5;"/>
    <path clip-path="url(#pf491eab659)" d="M 147.421797 190.12909 
L 153.100839 199.93343 
L 158.67196 208.470359 
L 164.143191 215.774283 
L 169.522146 221.876134 
L 174.816065 226.803593 
L 180.031842 230.58127 
L 185.176066 233.230883 
L 190.255046 234.771401 
L 195.274843 235.219176 
L 200.241292 234.588059 
L 205.160031 232.88949 
L 210.036521 230.132593 
L 214.876066 226.324234 
L 219.683836 221.469087 
L 224.464885 215.569675 
L 229.22417 208.626404 
L 233.966566 200.637587 
L 238.696886 191.599456 
L 243.419895 181.506161 
L 248.140329 170.349763 
L 252.862908 158.120215 
L 257.592353 144.805332 
L 262.333401 130.390749 
" style="fill:none;stroke:#1f77b4;stroke-width:1.5;"/>
    <path clip-path="url(#pf491eab659)" d="M 156.178373 196.105701 
L 161.797856 205.872405 
L 167.313259 214.373677 
L 172.732483 221.643863 
L 178.063023 227.71384 
L 183.312005 232.611234 
L 188.486225 236.360608 
L 193.592178 238.983633 
L 198.63609 240.499236 
L 203.623946 240.92373 
L 208.561514 240.270926 
L 213.45437 238.552233 
L 218.307922 235.77674 
L 223.127425 231.951286 
L 227.91801 227.080518 
L 232.684695 221.166932 
L 237.432407 214.210914 
L 242.165998 206.210754 
L 246.890264 197.162665 
L 251.609958 187.060781 
L 256.329808 175.897148 
L 261.054534 163.661706 
L 265.78886 150.342257 
L 270.537535 135.924427 
" style="fill:none;stroke:#1f77b4;stroke-width:1.5;"/>
    <path clip-path="url(#pf491eab659)" d="M 164.918207 200.939728 
L 170.480169 210.68038 
L 175.94183 219.156573 
L 181.310964 226.402636 
L 186.59495 232.449431 
L 191.800809 237.324565 
L 196.935242 241.052583 
L 202.004655 243.65514 
L 207.015197 245.151143 
L 211.97278 245.556886 
L 216.883108 244.886164 
L 221.7517 243.150368 
L 226.583913 240.358567 
L 231.38496 236.517584 
L 236.159931 231.632045 
L 240.913815 225.70443 
L 245.651513 218.735106 
L 250.377855 210.722345 
L 255.097624 201.662342 
L 259.815564 191.54921 
L 264.536398 180.374979 
L 269.26485 168.129566 
L 274.00565 154.800756 
L 278.76356 140.374154 
" style="fill:none;stroke:#1f77b4;stroke-width:1.5;"/>
    <path clip-path="url(#pf491eab659)" d="M 173.650674 204.63339 
L 179.157032 214.359558 
L 184.56681 222.821235 
L 189.887663 230.052777 
L 195.126859 236.085067 
L 200.29132 240.94573 
L 205.387653 244.659325 
L 210.422183 247.247516 
L 215.400983 248.729216 
L 220.329897 249.120726 
L 225.21457 248.435838 
L 230.060468 246.685942 
L 234.872898 243.880103 
L 239.657035 240.025137 
L 244.417935 235.125662 
L 249.160556 229.184145 
L 253.889776 222.200939 
L 258.610412 214.174301 
L 263.327232 205.100407 
L 268.044974 194.973351 
L 272.768364 183.785137 
L 277.502126 171.525659 
L 282.251006 158.182673 
L 287.019778 143.741752 
" style="fill:none;stroke:#1f77b4;stroke-width:1.5;"/>
    <path clip-path="url(#pf491eab659)" d="M 182.385173 207.186453 
L 187.837723 216.909735 
L 193.197367 225.367484 
L 198.471645 232.594126 
L 203.667721 238.620606 
L 208.792419 243.4746 
L 213.85226 247.180714 
L 218.853491 249.760649 
L 223.802111 251.23335 
L 228.703903 251.615143 
L 233.564453 250.91984 
L 238.389178 249.158844 
L 243.183342 246.341233 
L 247.952081 242.473823 
L 252.70042 237.561234 
L 257.433293 231.605929 
L 262.155558 224.608249 
L 266.872016 216.56644 
L 271.587429 207.476659 
L 276.306531 197.332976 
L 281.034051 186.12737 
L 285.774721 173.849704 
L 290.533301 160.487696 
L 295.314585 146.026878 
" style="fill:none;stroke:#1f77b4;stroke-width:1.5;"/>
    <path clip-path="url(#pf491eab659)" d="M 191.131159 208.596214 
L 196.53158 218.32828 
L 201.842732 226.792752 
L 207.072042 234.024172 
L 212.226573 240.053585 
L 217.313061 244.908757 
L 222.337941 248.614369 
L 227.307384 251.192189 
L 232.227324 252.66122 
L 237.103482 253.037832 
L 241.941392 252.33588 
L 246.746421 250.566796 
L 251.523796 247.739681 
L 256.278617 243.861367 
L 261.015882 238.936483 
L 265.740501 232.967493 
L 270.457316 225.954735 
L 275.171118 217.896443 
L 279.886662 208.788755 
L 284.608684 198.625719 
L 289.341917 187.39928 
L 294.091106 175.099265 
L 298.861027 161.713347 
L 303.656498 147.227005 
" style="fill:none;stroke:#1f77b4;stroke-width:1.5;"/>
    <path clip-path="url(#pf491eab659)" d="M 199.898181 208.857473 
L 205.248038 218.610107 
L 210.51223 227.092058 
L 215.698081 234.338026 
L 220.812556 240.379198 
L 225.862301 245.243466 
L 230.853675 248.955619 
L 235.792776 251.537521 
L 240.685474 253.008256 
L 245.537432 253.384265 
L 250.354134 252.679461 
L 255.140905 250.905323 
L 259.902933 248.07099 
L 264.645286 244.183321 
L 269.372939 239.246963 
L 274.090781 233.264389 
L 278.803641 226.235937 
L 283.516301 218.159831 
L 288.233515 209.032193 
L 292.960021 198.847044 
L 297.700562 187.596294 
L 302.459898 175.269724 
L 307.242824 161.854956 
L 312.054186 147.337406 
" style="fill:none;stroke:#1f77b4;stroke-width:1.5;"/>
    <path clip-path="url(#pf491eab659)" d="M 208.695915 207.962488 
L 213.996659 217.747634 
L 219.215322 226.257963 
L 224.359124 233.52838 
L 229.434941 239.590254 
L 234.449333 244.47164 
L 239.408582 248.197469 
L 244.318719 250.789728 
L 249.185553 252.267612 
L 254.014692 252.647652 
L 258.811574 251.943841 
L 263.581483 250.167722 
L 268.329571 247.328484 
L 273.060881 243.433028 
L 277.780362 238.486027 
L 282.492888 232.48997 
L 287.203278 225.4452 
L 291.916309 217.349933 
L 296.636734 208.200275 
L 301.369298 197.990217 
L 306.118757 186.711631 
L 310.889888 174.354248 
L 315.687511 160.905626 
L 320.516499 146.351109 
" style="fill:none;stroke:#1f77b4;stroke-width:1.5;"/>
    <path clip-path="url(#pf491eab659)" d="M 217.534202 205.900918 
L 222.787171 215.730727 
L 227.961629 224.280519 
L 233.064701 231.585453 
L 238.103169 237.677125 
L 243.083516 242.583785 
L 248.01195 246.330544 
L 252.894437 248.939543 
L 257.736727 250.430111 
L 262.544378 250.818896 
L 267.322783 250.119987 
L 272.077188 248.345012 
L 276.812714 245.503225 
L 281.534378 241.601578 
L 286.247109 236.644781 
L 290.955769 230.635347 
L 295.665167 223.573627 
L 300.380079 215.457835 
L 305.105262 206.284057 
L 309.84547 196.046256 
L 314.605474 184.736259 
L 319.390074 172.34374 
L 324.204114 158.856186 
L 329.052504 144.258856 
" style="fill:none;stroke:#1f77b4;stroke-width:1.5;"/>
    <path clip-path="url(#pf491eab659)" d="M 226.423084 202.65975 
L 231.629504 212.546625 
L 236.76098 221.147198 
L 241.824542 228.496928 
L 246.826887 234.627678 
L 251.774418 239.56794 
L 256.673275 243.343033 
L 261.529361 245.975285 
L 266.34837 247.484187 
L 271.135813 247.886527 
L 275.897041 247.196513 
L 280.637264 245.425874 
L 285.361576 242.583945 
L 290.074968 238.677743 
L 294.782355 233.712022 
L 299.488587 227.689327 
L 304.198468 220.610024 
L 308.916775 212.472323 
L 313.648271 203.272296 
L 318.397724 193.003872 
L 323.169923 181.65883 
L 327.969691 169.22678 
L 332.801905 155.695129 
L 337.671511 141.049039 
" style="fill:none;stroke:#1f77b4;stroke-width:1.5;"/>
    <path clip-path="url(#pf491eab659)" d="M 235.372848 198.22321 
L 240.533831 208.179861 
L 245.623444 216.842807 
L 250.648621 224.247861 
L 255.615979 230.427199 
L 260.531846 235.40959 
L 265.402293 239.220602 
L 270.233163 241.88278 
L 275.0301 243.415806 
L 279.798567 243.836632 
L 284.543876 243.159609 
L 289.271205 241.396582 
L 293.985621 238.556985 
L 298.692096 234.64791 
L 303.39553 229.674169 
L 308.100764 223.638345 
L 312.812601 216.540823 
L 317.535821 208.379816 
L 322.275198 199.151376 
L 327.035515 188.8494 
L 331.821581 177.465613 
L 336.63825 164.989554 
L 341.490433 151.408541 
L 346.383115 136.707629 
" style="fill:none;stroke:#1f77b4;stroke-width:1.5;"/>
    <path clip-path="url(#pf491eab659)" d="M 244.394063 192.572657 
L 249.510609 202.61215 
L 254.559369 211.349389 
L 259.547193 218.82059 
L 264.480614 225.058289 
L 269.365888 230.091578 
L 274.209021 233.946307 
L 279.015799 236.645274 
L 283.791815 238.208378 
L 288.54249 238.652766 
L 293.273098 237.992949 
L 297.988787 236.240911 
L 302.6946 233.406198 
L 307.395491 229.495993 
L 312.096349 224.515178 
L 316.802011 218.466378 
L 321.517278 211.350004 
L 326.246938 203.164273 
L 330.995777 193.905223 
L 335.768598 183.566709 
L 340.570236 172.140404 
L 345.405574 159.615766 
L 350.279562 145.980016 
L 355.197232 131.218086 
" style="fill:none;stroke:#1f77b4;stroke-width:1.5;"/>
    <path clip-path="url(#pf491eab659)" d="M 253.497629 185.686459 
L 258.570618 195.822274 
L 263.579434 204.646102 
L 268.530837 212.194616 
L 273.431282 218.500761 
L 278.286954 223.593992 
L 283.103798 227.500485 
L 287.887545 230.243322 
L 292.643737 231.842654 
L 297.377755 232.315844 
L 302.094839 231.67759 
L 306.80011 229.940035 
L 311.498587 227.112855 
L 316.195211 223.203336 
L 320.894861 218.216438 
L 325.60237 212.154843 
L 330.322545 205.01899 
L 335.060183 196.807103 
L 339.820084 187.515204 
L 344.607075 177.137111 
L 349.426018 165.664433 
L 354.281834 153.086543 
L 359.179512 139.390552 
L 364.124134 124.561262 
" style="fill:none;stroke:#1f77b4;stroke-width:1.5;"/>
    <path clip-path="url(#pf491eab659)" d="M 262.69482 177.53985 
L 267.725016 187.785943 
L 272.694684 196.709088 
L 277.610499 204.346471 
L 282.478839 210.731499 
L 287.305822 215.894037 
L 292.097329 219.860626 
L 296.859039 222.654668 
L 301.596448 224.296598 
L 306.314898 224.804023 
L 311.019597 224.191855 
L 315.715638 222.472415 
L 320.408023 219.655525 
L 325.10168 215.748591 
L 329.80148 210.756663 
L 334.512256 204.682485 
L 339.238823 197.526534 
L 343.985988 189.287044 
L 348.758573 179.960019 
L 353.561428 169.539239 
L 358.399449 158.016242 
L 363.277593 145.380312 
L 368.200899 131.618439 
L 373.1745 116.715279 
" style="fill:none;stroke:#1f77b4;stroke-width:1.5;"/>
    <path clip-path="url(#pf491eab659)" d="M 271.997339 168.104763 
L 276.985382 178.475629 
L 281.916587 187.511309 
L 286.797545 195.249566 
L 291.634559 201.724318 
L 296.433679 206.96589 
L 301.200728 211.001229 
L 305.941332 213.8541 
L 310.660943 215.545252 
L 315.364866 216.092568 
L 320.058278 215.511196 
L 324.746247 213.813657 
L 329.43376 211.009943 
L 334.125734 207.107591 
L 338.827034 202.111754 
L 343.542499 196.025248 
L 348.276949 188.848592 
L 353.035209 180.580034 
L 357.822123 171.215564 
L 362.642568 160.748916 
L 367.501478 149.171558 
L 372.403853 136.472673 
L 377.35478 122.639121 
L 382.359451 107.655397 
" style="fill:none;stroke:#1f77b4;stroke-width:1.5;"/>
    <path clip-path="url(#pf491eab659)" d="M 281.417371 157.349645 
L 286.363772 167.860387 
L 291.257082 177.022375 
L 296.103808 184.874011 
L 300.910179 191.449784 
L 305.682179 196.780528 
L 310.425572 200.893642 
L 315.145934 203.813291 
L 319.848675 205.560575 
L 324.539063 206.153686 
L 329.222245 205.608034 
L 333.903271 203.936365 
L 338.58711 201.148855 
L 343.278669 197.253194 
L 347.982816 192.254648 
L 352.704391 186.156116 
L 357.448228 178.958166 
L 362.219169 170.659062 
L 367.022084 161.254781 
L 371.861884 150.73901 
L 376.74354 139.103141 
L 381.672099 126.336247 
L 386.652705 112.425047 
L 391.69061 97.353862 
" style="fill:none;stroke:#1f77b4;stroke-width:1.5;"/>
   </g>
  </g>
 </g>
 <defs>
  <clipPath id="pf491eab659">
   <rect height="345.6" width="460.8" x="0" y="0"/>
  </clipPath>
 </defs>
</svg>
